<svg xmlns="http://www.w3.org/2000/svg" viewBox="0 0 160 120">
    <rect width="160" height="120" rx="12" fill="#fff5cf"/>
    <path d="M77 106V26M77 58C48 38 30 39 18 49c18 19 38 22 59 14M79 72c27-20 46-19 62-9-14 20-35 25-62 17" fill="none" stroke="#4e9c46" stroke-width="8" stroke-linecap="round"/>
    <path d="M91 34c-3-13 4-24 14-29 8 13 4 27-10 34Z" fill="#edbd32"/>
    <path d="M87 36c-2-12 2-24 11-31 11 13 9 27-5 36Z" fill="#f3ce46"/>
    <path d="M100 30l9 3M98 38l11 3M96 46l10 3" stroke="#c9901e" stroke-width="2"/>
</svg>